<svg id="Layer_5" enable-background="new 0 0 64 64" height="512" viewBox="0 0 64 64" width="512" xmlns="http://www.w3.org/2000/svg"><g><path d="m32 13c-10.477 0-19 8.523-19 19s8.523 19 19 19 19-8.523 19-19-8.523-19-19-19zm0 36c-9.374 0-17-7.626-17-17s7.626-17 17-17 17 7.626 17 17-7.626 17-17 17z"/><path d="m32 17c-8.271 0-15 6.729-15 15s6.729 15 15 15 15-6.729 15-15-6.729-15-15-15zm0 28c-7.168 0-13-5.832-13-13s5.832-13 13-13 13 5.832 13 13-5.832 13-13 13z"/><path d="m32 9c-12.683 0-23 10.318-23 23s10.317 23 23 23 23-10.318 23-23-10.317-23-23-23zm0 44c-11.579 0-21-9.42-21-21s9.421-21 21-21 21 9.42 21 21-9.421 21-21 21z"/><path d="m32 5c-14.888 0-27 12.112-27 27s12.112 27 27 27 27-12.112 27-27-12.112-27-27-27zm0 52c-13.785 0-25-11.215-25-25s11.215-25 25-25 25 11.215 25 25-11.215 25-25 25z"/><path d="m32 1c-17.094 0-31 13.907-31 31v23c0 1.858 1.279 3.411 3 3.858v4.142h2v-4.142c1.721-.447 3-2 3-3.858v-2.24c5.677 6.284 13.885 10.24 23 10.24s17.323-3.956 23-10.24v2.24c0 1.858 1.279 3.411 3 3.858v4.142h2v-4.142c1.721-.447 3-2 3-3.858v-23c0-17.093-13.906-31-31-31zm-25 54c0 1.103-.897 2-2 2s-2-.897-2-2v-12.059c1.001 2.644 2.353 5.117 4 7.361zm25 6c-15.99 0-29-13.009-29-29s13.01-29 29-29 29 13.009 29 29-13.01 29-29 29zm29-6c0 1.103-.897 2-2 2s-2-.897-2-2v-4.698c1.647-2.244 2.999-4.716 4-7.361z"/></g></svg>